PathFileType	4	(X/Y/Z)	OpenSim_Sub01_CSBaseline_Accel.trc
DataRate	CameraRate	NumFrames	NumMarkers	Units	OrigDataRate	OrigDataStartFrame	OrigNumFrames
100	100	42	8	m	100	1	5950
Frame#	Time	torso_imu_offset_imu	pelvis_imu_offset_imu	tibia_r_imu_offset_imu	femur_r_imu_offset_imu	tibia_l_imu_offset_imu	femur_l_imu_offset_imu	toes_r_imu_offset_imu	toes_l_imu_offset_imu
				X1	Y1	Z1	X2	Y2	Z2	X3	Y3	Z3	X4	Y4	Z4	X5	Y5	Z5	X6	Y6	Z6	X7	Y7	Z7	X8		Y8	Z8	

1	0	9.10831873	-0.51692145	6.41562826	9.44552871	0.26255641	2.81069707	9.79835363	1.15343427	1.22282584	9.73444059	0.71741159	1.14913883	9.58595159	-1.93376873	0.84133394	9.75384512	0.60061891	-0.56692540	5.42416993	-1.90849894	8.16987737	5.51583838	1.13139434	10.75742003
2	0.01000000	9.01579803	-0.53499460	6.46348346	9.40403030	0.27156599	2.85878024	9.77915408	1.10386295	1.20904027	9.71833851	0.69975507	1.11173545	9.56611842	-1.92998828	0.83519907	9.74767178	0.62634567	-0.55482181	5.42512644	-1.90008473	8.17597791	5.51945991	1.13761814	10.75056988
3	0.02000000	8.89079427	-0.53185057	6.53352212	9.36346073	0.27334413	2.89516742	9.76307319	1.06027815	1.19719671	9.70769978	0.68715633	1.06976496	9.55114500	-1.93365216	0.82349004	9.74285849	0.64629788	-0.54471649	5.42810007	-1.89145007	8.17976089	5.51990925	1.13775950	10.74453281
4	0.03000000	8.78438337	-0.50838787	6.58022834	9.34064295	0.27325680	2.91519367	9.76618700	1.04110700	1.19353890	9.71087042	0.68219502	1.03599020	9.56143819	-1.94336662	0.80659163	9.74929751	0.65794905	-0.55104359	5.42610612	-1.89202024	8.17690940	5.51799802	1.12699188	10.74403724
5	0.04000000	8.72145534	-0.46483753	6.59426129	9.33686393	0.27250317	2.91602042	9.78602563	1.04467736	1.19580103	9.72350701	0.68500875	1.02125910	9.59105718	-1.95494805	0.78909325	9.76380288	0.64798613	-0.56140705	5.41880843	-1.90008636	8.16873314	5.51383471	1.11252243	10.74905615
6	0.05000000	8.71141491	-0.40107225	6.58760933	9.34425826	0.26982869	2.89590563	9.80919328	1.05747868	1.19671268	9.73380500	0.69429771	1.03523488	9.61855094	-1.96259159	0.77805697	9.77550294	0.59680010	-0.54768095	5.40979248	-1.90738520	8.15985609	5.50711963	1.10861362	10.75675651
7	0.06000000	8.75562604	-0.32448541	6.56996102	9.35760305	0.26489203	2.85717688	9.82537594	1.06988647	1.19224660	9.73514965	0.70943300	1.07590662	9.62936435	-1.96569716	0.77891775	9.77972820	0.49900194	-0.50241916	5.40256673	-1.90857483	8.15385925	5.49894632	1.12032065	10.76415729
8	0.07000000	8.83795817	-0.25926130	6.54525833	9.37783547	0.25946026	2.81121047	9.83145089	1.08128865	1.18575622	9.73272123	0.73132416	1.11524931	9.62477625	-1.97532465	0.79340865	9.78586958	0.38111297	-0.46477125	5.40035475	-1.90502055	8.15190087	5.49352878	1.13195135	10.76802809
9	0.08000000	8.93932922	-0.22955544	6.51726775	9.40649716	0.25530408	2.77018670	9.82599856	1.09254800	1.18143549	9.73263047	0.76043857	1.12446324	9.60826808	-2.00341999	0.82196413	9.80357411	0.27333177	-0.47562268	5.40580690	-1.89903086	8.15458886	5.49504327	1.12702751	10.76561256
10	0.09000000	9.03462402	-0.23577212	6.49597139	9.44276529	0.25128693	2.74194654	9.81513646	1.10716467	1.18184608	9.73411773	0.79052999	1.10308833	9.58394264	-2.05478852	0.85678346	9.82549260	0.19924557	-0.52869188	5.41605406	-1.89328216	8.16023393	5.50291791	1.10993761	10.75939649
11	0.10000000	9.09522557	-0.26431125	6.49500193	9.48441224	0.24456250	2.73174120	9.80939363	1.13017703	1.18857299	9.73238104	0.81142079	1.06738312	9.55627629	-2.12997263	0.88522684	9.83429937	0.17844650	-0.58991288	5.42498356	-1.89065822	8.16579425	5.51377706	1.09734469	10.75494550
12	0.11000000	9.10463118	-0.30300847	6.52457849	9.52709063	0.23341494	2.73848164	9.81194452	1.16288826	1.20029179	9.72486865	0.81908534	1.03376079	9.53124485	-2.21877726	0.89868048	9.82320472	0.21039206	-0.63368159	5.42912271	-1.89198566	8.16878213	5.52365449	1.09851639	10.75515948
13	0.12000000	9.07346939	-0.34330667	6.58719842	9.56176386	0.21870010	2.74700672	9.80942624	1.19822315	1.20921448	9.71416628	0.82333819	1.01849747	9.51815897	-2.28717212	0.89765330	9.80921540	0.24972921	-0.65407592	5.43098286	-1.89349514	8.16798543	5.52734713	1.10586514	10.75690151
14	0.13000000	9.01664922	-0.37808750	6.68136274	9.57994795	0.20201307	2.74197041	9.78849231	1.22858108	1.20780685	9.70350448	0.83453703	1.03564263	9.52513047	-2.30141982	0.88447944	9.81014612	0.25119669	-0.64898055	5.43352065	-1.89130078	8.16261623	5.52040778	1.11044433	10.75665532
15	0.14000000	8.95537126	-0.41004694	6.77510251	9.58541399	0.18898842	2.72577495	9.75906558	1.25264104	1.20018312	9.69559503	0.84931421	1.07644963	9.54323622	-2.26410099	0.86759312	9.81891318	0.23307432	-0.62808683	5.43593055	-1.88673355	8.15448497	5.50792057	1.11282108	10.75542102
16	0.15000000	8.91451035	-0.44764374	6.81860104	9.58914101	0.18761794	2.71126821	9.74473811	1.27277115	1.19730483	9.69284000	0.85624047	1.11875675	9.55354973	-2.19922402	0.85899229	9.81379925	0.25097572	-0.60801632	5.43519626	-1.88419120	8.14693415	5.50056861	1.11915177	10.75685106
17	0.16000000	8.91106133	-0.49366252	6.78893515	9.59754737	0.20044062	2.70615373	9.75688894	1.28809186	1.20499791	9.69686153	0.85132833	1.14730285	9.54683127	-2.13150640	0.86330195	9.78458871	0.32876517	-0.59803796	5.43010580	-1.88580223	8.14316394	5.50402861	1.13072081	10.76208659
18	0.17000000	8.94433064	-0.53806112	6.72370294	9.60666761	0.21776088	2.70635547	9.77925242	1.29037088	1.21743182	9.70755050	0.84742746	1.16261068	9.53574334	-2.08662996	0.86859335	9.74715128	0.41838897	-0.59081520	5.42353697	-1.88854344	8.14601268	5.51264520	1.13778071	10.76658879
19	0.18000000	9.00931543	-0.56999659	6.66507930	9.61212312	0.22930370	2.70625303	9.79348182	1.27247487	1.22765654	9.72408319	0.85816290	1.16697647	9.53434752	-2.08739649	0.86227701	9.71996586	0.46648417	-0.57811231	5.41872218	-1.88904508	8.15752102	5.51961886	1.13064404	10.76569862
20	0.19000000	9.08123403	-0.58827580	6.61794908	9.61977493	0.23590259	2.70073722	9.79836212	1.24888613	1.23344703	9.74067727	0.88164573	1.15895726	9.54055477	-2.12552851	0.84806565	9.71200993	0.46533595	-0.56560638	5.41684187	-1.88755632	8.17200042	5.52216776	1.11565300	10.76145007
21	0.20000000	9.12371059	-0.59737752	6.56528250	9.64147656	0.24491737	2.68502673	9.80276186	1.24677020	1.23536340	9.74864749	0.90685446	1.13494114	9.54277908	-2.17443698	0.83926199	9.72662541	0.43412796	-0.56714190	5.41786400	-1.88645731	8.17922775	5.51988591	1.10856814	10.75981214
22	0.21000000	9.11596771	-0.59739542	6.50768549	9.67891622	0.25805315	2.65993292	9.81075757	1.27885218	1.23351101	9.74402172	0.92686143	1.09912922	9.53590153	-2.21228586	0.84349128	9.76066714	0.38570877	-0.58810365	5.42132102	-1.88732175	8.17428077	5.51358268	1.11714709	10.76393934
23	0.22000000	9.07236678	-0.57847535	6.48574598	9.71092771	0.26420958	2.63873634	9.81544272	1.32527104	1.22690023	9.73342773	0.94413671	1.07321812	9.52950688	-2.22837249	0.85543411	9.79667806	0.31801608	-0.61476494	5.42580864	-1.88986248	8.16419566	5.50671080	1.13101927	10.77059285
24	0.23000000	9.01312175	-0.53131960	6.53817375	9.71544725	0.25190251	2.63513699	9.80936849	1.36286750	1.21491727	9.72435958	0.96157979	1.07836718	9.53348798	-2.21559532	0.86850680	9.81668683	0.22902177	-0.63209733	5.42991302	-1.89339772	8.15699584	5.50281914	1.13813024	10.77582348
25	0.24000000	8.96978287	-0.46627077	6.62844055	9.69306940	0.22357269	2.64974747	9.79482984	1.37995075	1.20235825	9.71844801	0.97339571	1.10575040	9.54037969	-2.18847761	0.88115544	9.81740414	0.13787922	-0.63832961	5.43343011	-1.89577134	8.15419237	5.50275671	1.13436436	10.77727896
26	0.25000000	8.98044672	-0.40520829	6.67583977	9.65773330	0.18986787	2.67546795	9.77985940	1.37161557	1.19718376	9.71386192	0.96867868	1.12888829	9.53253568	-2.17424062	0.89477385	9.80420985	0.07617999	-0.63950615	5.43686500	-1.89397216	8.15345815	5.50577494	1.12030588	10.77355980
27	0.26000000	9.05330859	-0.35958591	6.64319068	9.61875953	0.15985240	2.70687774	9.77032443	1.33725019	1.20165691	9.70813757	0.94036342	1.12874777	9.50470601	-2.18765872	0.90664433	9.78418229	0.06344392	-0.64061146	5.43975919	-1.88810087	8.15321742	5.51008212	1.10008078	10.76554885
28	0.27000000	9.12965723	-0.31726227	6.59170463	9.57477864	0.13882114	2.74252517	9.76709515	1.28562696	1.20523697	9.69749954	0.89010116	1.10341989	9.47959404	-2.21536772	0.90479029	9.76793969	0.09189670	-0.64403990	5.43948368	-1.88522628	8.15368156	5.51160510	1.08558193	10.75919391
29	0.28000000	9.14762052	-0.26507687	6.58851199	9.52418205	0.13087622	2.78085080	9.77024906	1.22665577	1.19699195	9.67910884	0.82209098	1.05529177	9.48118527	-2.24071274	0.87831075	9.76564550	0.14829500	-0.65102008	5.43356363	-1.89225189	8.15512742	5.50663689	1.08808249	10.76036304
30	0.29000000	9.10615346	-0.21230735	6.62441013	9.47782523	0.13307256	2.81363836	9.77865963	1.16888196	1.17983548	9.66162629	0.75465892	1.00718145	9.50765494	-2.25237263	0.84034228	9.77782384	0.20106061	-0.65436398	5.42414712	-1.90464124	8.15601148	5.49843701	1.10160823	10.76702592
31	0.30000000	9.04007378	-0.18140698	6.64529420	9.45387194	0.13832123	2.82877271	9.79048415	1.12003704	1.16483145	9.66044810	0.71439402	0.99385887	9.54195984	-2.24221824	0.81813889	9.79930037	0.20794077	-0.64196166	5.41609987	-1.91113832	8.15372794	5.49435676	1.11004765	10.77250585
32	0.31000000	8.97999774	-0.18192537	6.62407657	9.46108227	0.14236808	2.82010077	9.80261548	1.08598007	1.15934070	9.68069823	0.71290803	1.02877577	9.56861438	-2.21178552	0.82568949	9.82233510	0.15664567	-0.61084493	5.41228267	-1.90663287	8.14811762	5.49796045	1.10515209	10.77286475
33	0.32000000	8.94613283	-0.19424061	6.59524722	9.48702350	0.14740367	2.79488480	9.80914591	1.06841555	1.16222660	9.70438631	0.72815602	1.07747268	9.57604715	-2.18408374	0.84697794	9.83362777	0.10204875	-0.57858532	5.41100433	-1.89992130	8.14451119	5.50424448	1.09650934	10.77040928
34	0.33000000	8.95472749	-0.19694073	6.59691435	9.51720228	0.15625120	2.76202763	9.80468402	1.06843107	1.17104451	9.71220196	0.73602040	1.10233484	9.55543128	-2.18268562	0.86346827	9.82127327	0.10162909	-0.56377373	5.41020791	-1.90057131	8.14832527	5.50746236	1.09505279	10.76814197
35	0.34000000	8.99569795	-0.19088200	6.61852426	9.54545565	0.16926277	2.72862952	9.79308080	1.08654894	1.18171629	9.70349524	0.73800003	1.10009851	9.52080541	-2.20698537	0.87252304	9.79553681	0.14594816	-0.56683394	5.41041890	-1.90668804	8.15819566	5.50616627	1.10069193	10.76752635
36	0.35000000	9.04346545	-0.19003269	6.62091619	9.57053955	0.18532724	2.70070823	9.78362029	1.12293652	1.18921425	9.68862114	0.75067132	1.08774623	9.49962997	-2.24212511	0.88086874	9.77971175	0.18620357	-0.57749340	5.41367697	-1.90963280	8.16876418	5.50145129	1.10684157	10.76911160
37	0.36000000	9.08064247	-0.20322046	6.58593749	9.59221766	0.20216452	2.68021426	9.78154344	1.17321363	1.19149211	9.67728211	0.78344989	1.07849282	9.50520317	-2.27558286	0.89208303	9.78642463	0.19724473	-0.58985338	5.42006545	-1.90460801	8.17597690	5.49591626	1.10870190	10.77207262
38	0.37000000	9.10856523	-0.22742474	6.54313515	9.61236036	0.21492850	2.66005427	9.78291321	1.22286360	1.19318325	9.67740735	0.82933883	1.07656246	9.51883635	-2.30045981	0.90244772	9.80412571	0.20782967	-0.60808275	5.42525886	-1.89558108	8.17880511	5.49544191	1.10564405	10.77254427
39	0.38000000	9.13064429	-0.25825699	6.52492037	9.63257795	0.21912015	2.63319912	9.78316846	1.25746526	1.19925076	9.69529795	0.87880461	1.08449026	9.51966467	-2.31111861	0.90756016	9.81846049	0.25020918	-0.63623461	5.42494354	-1.88740429	8.17687501	5.50508752	1.09789968	10.76693392
40	0.39000000	9.14555034	-0.29375634	6.52664385	9.64885309	0.21740781	2.60591536	9.78412495	1.27774313	1.20873061	9.72292398	0.91905244	1.09993241	9.50903830	-2.30709062	0.90614316	9.81989001	0.31738933	-0.66310344	5.42108642	-1.88182217	8.17234794	5.51684740	1.08875829	10.75870871
41	0.40000000	9.14917775	-0.33338805	6.52185046	9.65387377	0.21666598	2.59228110	9.79133834	1.29333349	1.21716651	9.74383353	0.93540587	1.11766733	9.50139574	-2.29095925	0.89876648	9.80176500	0.37928604	-0.66854124	5.41934527	-1.87874619	8.16887417	5.51505639	1.08330187	10.75548477
42	0.41000000	9.14160016	-0.37534284	6.49607341	9.64565801	0.21912388	2.59965442	9.80571322	1.30904543	1.22097817	9.74836676	0.92212401	1.13254554	9.50767599	-2.26594691	0.88668464	9.76781009	0.41869284	-0.64485500	5.42238090	-1.87815265	8.16871003	5.49416360	1.08420612	10.76155655
